<?xml version="1.0" encoding="UTF-8" standalone="no"?>
<!DOCTYPE svg PUBLIC "-//W3C//DTD SVG 1.1//EN" "http://www.w3.org/Graphics/SVG/1.1/DTD/svg11.dtd">
<svg width="100%" height="100%" viewBox="0 0 863 668" version="1.1" xmlns="http://www.w3.org/2000/svg" xmlns:xlink="http://www.w3.org/1999/xlink" xml:space="preserve" xmlns:serif="http://www.serif.com/" style="fill-rule:evenodd;clip-rule:evenodd;stroke-linejoin:round;stroke-miterlimit:2;">
    <g transform="matrix(1,0,0,1,-8873,-1451)">
        <g transform="matrix(1,0,0,1,-0.648294,0)">
            <g transform="matrix(1.76479,0,0,1.76479,-20657.8,-1665.99)">
                <path d="M16817,1943.42L16817,1937.75L16821.3,1937.75L16833.3,1904.35L16844.6,1904.35L16856.8,1937.75L16861.1,1937.75L16861.1,1943.42L16839.8,1943.42L16839.8,1937.75L16844.7,1937.75L16842.6,1931.56L16829.7,1931.56L16827.6,1937.75L16832.5,1937.75L16832.5,1943.42L16817,1943.42ZM16836,1912.43L16831.4,1926.36L16840.9,1926.36L16836.2,1912.43L16836,1912.43Z" style="fill:rgb(38,38,38);fill-rule:nonzero;"/>
                <path d="M16869.2,1943.42L16869.2,1937.75L16873.9,1937.75L16873.9,1910.25L16869.2,1910.25L16869.2,1904.58L16906.5,1904.58L16906.5,1919.22L16900.4,1919.22C16900,1917.21 16899.6,1915.6 16899.2,1914.38C16898.8,1913.16 16898.3,1912.24 16897.7,1911.61C16897.1,1910.98 16896.3,1910.56 16895.5,1910.37C16894.6,1910.17 16893.5,1910.07 16892.2,1910.07L16885.1,1910.07L16885.1,1921.82L16887.2,1921.82C16888.6,1921.82 16889.5,1921.51 16889.9,1920.9C16890.3,1920.29 16890.6,1918.87 16890.9,1916.62L16896.2,1916.62L16896.2,1932.68L16890.9,1932.68C16890.7,1930.36 16890.3,1928.88 16889.9,1928.25C16889.5,1927.62 16888.6,1927.31 16887.2,1927.31L16885.1,1927.31L16885.1,1937.75L16891.2,1937.75L16891.2,1943.42L16869.2,1943.42Z" style="fill:rgb(38,38,38);fill-rule:nonzero;"/>
                <path d="M16950.4,1944.31C16946.8,1944.31 16944.2,1943.36 16942.8,1941.47C16941.4,1939.58 16940.7,1936.93 16940.7,1933.5L16940.7,1932.62C16940.7,1930.41 16940.4,1928.86 16939.7,1927.96C16939,1927.05 16937.7,1926.6 16935.8,1926.6L16931.7,1926.6L16931.7,1937.75L16936.9,1937.75L16936.9,1943.42L16915.8,1943.42L16915.8,1937.75L16920.6,1937.75L16920.6,1910.25L16915.8,1910.25L16915.8,1904.58L16938.2,1904.58C16941.1,1904.58 16943.5,1904.86 16945.6,1905.41C16947.6,1905.96 16949.2,1906.69 16950.5,1907.59C16951.8,1908.5 16952.7,1909.54 16953.2,1910.72C16953.8,1911.9 16954.1,1913.1 16954.1,1914.32C16954.1,1916.8 16953.2,1918.91 16951.3,1920.64C16949.4,1922.37 16946,1923.47 16941.2,1923.94L16941.2,1924.3C16945.1,1924.49 16947.9,1925.39 16949.5,1926.98C16951.1,1928.58 16951.9,1930.57 16952,1932.97L16952.1,1934.45C16952.1,1935.79 16952.3,1936.67 16952.6,1937.11C16952.9,1937.54 16953.3,1937.75 16953.9,1937.75C16954.3,1937.75 16954.7,1937.48 16955.1,1936.93C16955.4,1936.38 16955.8,1935.33 16956.2,1933.8L16960.1,1934.86C16959.5,1937.5 16958.6,1939.73 16957.1,1941.56C16955.7,1943.39 16953.4,1944.31 16950.4,1944.31ZM16931.7,1921.23L16936.4,1921.23C16938.3,1921.23 16939.8,1920.82 16940.8,1920.02C16941.8,1919.21 16942.3,1917.73 16942.3,1915.56C16942.3,1913.63 16942,1912.22 16941.2,1911.31C16940.4,1910.41 16938.8,1909.95 16936.4,1909.95L16931.7,1909.95L16931.7,1921.23Z" style="fill:rgb(38,38,38);fill-rule:nonzero;"/>
                <path d="M16966.5,1943.42L16966.5,1937.75L16971.4,1937.75L16971.4,1910.25L16966.5,1910.25L16966.5,1904.58L16987.6,1904.58L16987.6,1910.25L16982.6,1910.25L16982.6,1937.75L16987.6,1937.75L16987.6,1943.42L16966.5,1943.42Z" style="fill:rgb(38,38,38);fill-rule:nonzero;"/>
                <path d="M17018.3,1944.37C17015.1,1944.37 17012.3,1943.89 17009.8,1942.95C17007.2,1942 17005,1940.68 17003.3,1938.96C17001.5,1937.25 17000.1,1935.16 16999.2,1932.68C16998.2,1930.2 16997.7,1927.44 16997.7,1924.41C16997.7,1921.31 16998.2,1918.46 16999.2,1915.88C17000.3,1913.31 17001.6,1911.11 17003.3,1909.3C17005.1,1907.49 17007.1,1906.1 17009.4,1905.11C17011.7,1904.13 17014.1,1903.64 17016.7,1903.64C17019.2,1903.64 17021.4,1904.04 17023.2,1904.85C17025.1,1905.65 17026.6,1906.81 17027.8,1908.3L17029.1,1903.76L17035,1903.76L17035,1919.34L17028.2,1919.34C17027.1,1915.72 17025.8,1913.07 17024.2,1911.4C17022.5,1909.73 17020.6,1908.89 17018.2,1908.89C17015.6,1908.89 17013.6,1910 17012,1912.23C17010.5,1914.45 17009.7,1918.28 17009.7,1923.71C17009.7,1928.98 17010.6,1932.72 17012.4,1934.92C17014.3,1937.12 17016.7,1938.23 17019.8,1938.23C17022.4,1938.23 17024.5,1937.3 17026.1,1935.45C17027.6,1933.6 17028.7,1931.08 17029.2,1927.9L17035.5,1927.9C17035.3,1930.34 17034.8,1932.58 17034,1934.63C17033.2,1936.67 17032.1,1938.41 17030.7,1939.85C17029.3,1941.29 17027.5,1942.4 17025.5,1943.18C17023.4,1943.97 17021,1944.37 17018.3,1944.37Z" style="fill:rgb(38,38,38);fill-rule:nonzero;"/>
                <path d="M17042.5,1943.42L17042.5,1937.75L17046.8,1937.75L17058.9,1904.35L17070.1,1904.35L17082.4,1937.75L17086.7,1937.75L17086.7,1943.42L17065.3,1943.42L17065.3,1937.75L17070.2,1937.75L17068.1,1931.56L17055.2,1931.56L17053.1,1937.75L17058,1937.75L17058,1943.42L17042.5,1943.42ZM17061.5,1912.43L17056.9,1926.36L17066.4,1926.36L17061.8,1912.43L17061.5,1912.43Z" style="fill:rgb(38,38,38);fill-rule:nonzero;"/>
                <path d="M17122.2,1943.78L17105.6,1914.44L17105,1914.44L17105,1937.75L17110,1937.75L17110,1943.42L17094.7,1943.42L17094.7,1937.75L17099.4,1937.75L17099.4,1910.25L17094.7,1910.25L17094.7,1904.58L17112.8,1904.58L17127.9,1931.26L17128.5,1931.26L17128.5,1910.25L17123.5,1910.25L17123.5,1904.58L17138.8,1904.58L17138.8,1910.25L17134.1,1910.25L17134.1,1943.78L17122.2,1943.78Z" style="fill:rgb(38,38,38);fill-rule:nonzero;"/>
                <path d="M16752.5,2003.39C16749.8,2003.39 16747.4,2002.91 16745.1,2001.94C16742.8,2000.98 16740.8,1999.62 16739.1,1997.87C16737.4,1996.12 16736.1,1994 16735.2,1991.5C16734.2,1989 16733.8,1986.21 16733.8,1983.14C16733.8,1980.15 16734.3,1977.39 16735.3,1974.85C16736.4,1972.31 16737.8,1970.15 16739.6,1968.36C16741.4,1966.57 16743.4,1965.17 16745.7,1964.17C16748.1,1963.16 16750.5,1962.66 16752.9,1962.66C16755.4,1962.66 16757.5,1963.1 16759.3,1963.96C16761.1,1964.83 16762.6,1966.05 16763.7,1967.62L16765.1,1962.78L16771.1,1962.78L16771.1,1977.77L16763.2,1977.77C16762.2,1974.23 16761,1971.7 16759.6,1970.19C16758.1,1968.67 16756.4,1967.92 16754.2,1967.92C16751.8,1967.92 16749.8,1969.1 16748.2,1971.46C16746.5,1973.82 16745.7,1977.58 16745.7,1982.73C16745.7,1987.41 16746.4,1991.05 16747.9,1993.65C16749.3,1996.25 16751.4,1997.55 16754.4,1997.55C16755.3,1997.55 16756.1,1997.4 16756.8,1997.1C16757.5,1996.81 16758.2,1996.39 16758.7,1995.84C16759.5,1995.09 16760,1994.1 16760.4,1992.88C16760.7,1991.66 16760.9,1990.25 16760.9,1988.63L16760.9,1987.75L16754.6,1987.75L16754.6,1982.08L16776,1982.08L16776,1987.75L16771.9,1987.75L16771.9,2002.92L16765.9,2002.92L16763.4,1996.84C16762.6,1998.65 16761.3,2000.19 16759.6,2001.47C16758,2002.75 16755.6,2003.39 16752.5,2003.39Z" style="fill:rgb(38,38,38);fill-rule:nonzero;"/>
                <path d="M16805.2,2003.39C16802.2,2003.39 16799.4,2002.92 16796.9,2001.97C16794.4,2001.03 16792.3,1999.69 16790.5,1997.96C16788.7,1996.23 16787.3,1994.1 16786.3,1991.59C16785.3,1989.07 16784.8,1986.25 16784.8,1983.14C16784.8,1980.04 16785.3,1977.21 16786.3,1974.67C16787.4,1972.14 16788.8,1969.98 16790.6,1968.21C16792.4,1966.44 16794.6,1965.07 16797.1,1964.11C16799.6,1963.14 16802.3,1962.66 16805.2,1962.66C16808.2,1962.66 16810.9,1963.13 16813.4,1964.08C16815.9,1965.02 16818.1,1966.37 16819.8,1968.12C16821.6,1969.87 16823,1972 16824,1974.5C16825,1977 16825.5,1979.8 16825.5,1982.91C16825.5,1986.02 16825,1988.84 16824,1991.38C16823,1993.92 16821.6,1996.07 16819.8,1997.84C16817.9,1999.61 16815.8,2000.98 16813.3,2001.94C16810.8,2002.91 16808.1,2003.39 16805.2,2003.39ZM16805.4,1998.14C16808.2,1998.14 16810.3,1996.98 16811.6,1994.65C16812.9,1992.33 16813.6,1988.46 16813.6,1983.03C16813.6,1977.63 16812.8,1973.77 16811.3,1971.43C16809.9,1969.09 16807.7,1967.92 16804.9,1967.92C16802.1,1967.92 16800.1,1969.09 16798.8,1971.43C16797.5,1973.77 16796.8,1977.63 16796.8,1983.03C16796.8,1988.46 16797.5,1992.33 16799,1994.65C16800.5,1996.98 16802.6,1998.14 16805.4,1998.14Z" style="fill:rgb(38,38,38);fill-rule:nonzero;"/>
                <path d="M16849.1,2002.68L16836.4,1969.27L16832.1,1969.27L16832.1,1963.61L16853.5,1963.61L16853.5,1969.27L16848.6,1969.27L16856.9,1993.18L16857.3,1993.18L16865.6,1969.27L16860.7,1969.27L16860.7,1963.61L16876.2,1963.61L16876.2,1969.27L16871.9,1969.27L16859.4,2002.68L16849.1,2002.68Z" style="fill:rgb(38,38,38);fill-rule:nonzero;"/>
                <path d="M16883.7,2002.45L16883.7,1996.78L16888.5,1996.78L16888.5,1969.27L16883.7,1969.27L16883.7,1963.61L16921.7,1963.61L16921.7,1977.95L16915.7,1977.95C16915.4,1976.06 16915,1974.54 16914.7,1973.38C16914.4,1972.22 16913.9,1971.32 16913.4,1970.69C16912.9,1970.06 16912.2,1969.64 16911.4,1969.42C16910.6,1969.21 16909.5,1969.1 16908.3,1969.1L16899.6,1969.1L16899.6,1980.13L16902.4,1980.13C16903.9,1980.13 16904.8,1979.83 16905.1,1979.22C16905.5,1978.61 16905.9,1977.18 16906.2,1974.94L16911.4,1974.94L16911.4,1990.82L16906.2,1990.82C16905.9,1988.58 16905.5,1987.15 16905.1,1986.54C16904.7,1985.93 16903.8,1985.62 16902.4,1985.62L16899.6,1985.62L16899.6,1996.96L16908.1,1996.96C16909.6,1996.96 16910.9,1996.8 16911.8,1996.48C16912.8,1996.17 16913.5,1995.61 16914.1,1994.8C16914.6,1994 16915,1992.91 16915.3,1991.56C16915.6,1990.2 16915.9,1988.5 16916.2,1986.45L16922.3,1986.45L16922.3,2002.45L16883.7,2002.45Z" style="fill:rgb(38,38,38);fill-rule:nonzero;"/>
                <path d="M16966.7,2003.33C16963,2003.33 16960.5,2002.39 16959.1,2000.5C16957.7,1998.61 16957,1995.95 16957,1992.53L16957,1991.64C16957,1989.44 16956.7,1987.89 16956,1986.98C16955.3,1986.08 16954,1985.62 16952.1,1985.62L16948,1985.62L16948,1996.78L16953.1,1996.78L16953.1,2002.45L16932.1,2002.45L16932.1,1996.78L16936.9,1996.78L16936.9,1969.27L16932.1,1969.27L16932.1,1963.61L16954.4,1963.61C16957.4,1963.61 16959.8,1963.88 16961.9,1964.43C16963.9,1964.98 16965.5,1965.71 16966.8,1966.62C16968,1967.52 16969,1968.57 16969.5,1969.75C16970.1,1970.93 16970.4,1972.13 16970.4,1973.35C16970.4,1975.83 16969.5,1977.93 16967.6,1979.66C16965.7,1981.39 16962.3,1982.5 16957.5,1982.97L16957.5,1983.32C16961.4,1983.52 16964.2,1984.41 16965.8,1986.01C16967.4,1987.6 16968.2,1989.6 16968.3,1992L16968.4,1993.47C16968.4,1994.81 16968.6,1995.7 16968.9,1996.13C16969.2,1996.56 16969.6,1996.78 16970.2,1996.78C16970.6,1996.78 16971,1996.5 16971.4,1995.95C16971.7,1995.4 16972.1,1994.36 16972.5,1992.83L16976.3,1993.89C16975.8,1996.52 16974.9,1998.76 16973.4,2000.59C16972,2002.42 16969.7,2003.33 16966.7,2003.33ZM16948,1980.25L16952.7,1980.25C16954.6,1980.25 16956.1,1979.85 16957.1,1979.04C16958.1,1978.24 16958.6,1976.75 16958.6,1974.59C16958.6,1972.66 16958.2,1971.24 16957.5,1970.34C16956.7,1969.43 16955.1,1968.98 16952.7,1968.98L16948,1968.98L16948,1980.25Z" style="fill:rgb(38,38,38);fill-rule:nonzero;"/>
                <path d="M17009.6,2002.8L16992.9,1973.46L16992.4,1973.46L16992.4,1996.78L16997.4,1996.78L16997.4,2002.45L16982.1,2002.45L16982.1,1996.78L16986.7,1996.78L16986.7,1969.27L16982.1,1969.27L16982.1,1963.61L17000.2,1963.61L17015.3,1990.29L17015.8,1990.29L17015.8,1969.27L17010.9,1969.27L17010.9,1963.61L17026.2,1963.61L17026.2,1969.27L17021.5,1969.27L17021.5,2002.8L17009.6,2002.8Z" style="fill:rgb(38,38,38);fill-rule:nonzero;"/>
                <path d="M17032.2,2002.45L17032.2,1996.78L17036.6,1996.78L17048.6,1963.37L17059.9,1963.37L17072.1,1996.78L17076.4,1996.78L17076.4,2002.45L17055,2002.45L17055,1996.78L17059.9,1996.78L17057.9,1990.58L17044.9,1990.58L17042.9,1996.78L17047.8,1996.78L17047.8,2002.45L17032.2,2002.45ZM17051.2,1971.46L17046.6,1985.39L17056.1,1985.39L17051.5,1971.46L17051.2,1971.46Z" style="fill:rgb(38,38,38);fill-rule:nonzero;"/>
                <path d="M17111.9,2002.8L17095.3,1973.46L17094.8,1973.46L17094.8,1996.78L17099.7,1996.78L17099.7,2002.45L17084.4,2002.45L17084.4,1996.78L17089.1,1996.78L17089.1,1969.27L17084.4,1969.27L17084.4,1963.61L17102.5,1963.61L17117.7,1990.29L17118.2,1990.29L17118.2,1969.27L17113.2,1969.27L17113.2,1963.61L17128.5,1963.61L17128.5,1969.27L17123.8,1969.27L17123.8,2002.8L17111.9,2002.8Z" style="fill:rgb(38,38,38);fill-rule:nonzero;"/>
                <path d="M17157.4,2003.39C17154.3,2003.39 17151.5,2002.92 17148.9,2001.97C17146.4,2001.03 17144.2,1999.7 17142.4,1997.99C17140.7,1996.28 17139.3,1994.18 17138.3,1991.7C17137.4,1989.22 17136.9,1986.47 17136.9,1983.44C17136.9,1980.33 17137.4,1977.49 17138.4,1974.91C17139.5,1972.33 17140.8,1970.14 17142.5,1968.33C17144.2,1966.52 17146.2,1965.12 17148.6,1964.14C17150.9,1963.15 17153.3,1962.66 17155.8,1962.66C17158.4,1962.66 17160.6,1963.07 17162.4,1963.87C17164.3,1964.68 17165.8,1965.83 17167,1967.33L17168.3,1962.78L17174.2,1962.78L17174.2,1978.36L17167.4,1978.36C17166.3,1974.74 17165,1972.1 17163.3,1970.42C17161.7,1968.75 17159.7,1967.92 17157.4,1967.92C17154.8,1967.92 17152.8,1969.03 17151.2,1971.25C17149.7,1973.47 17148.9,1977.3 17148.9,1982.73C17148.9,1988 17149.8,1991.74 17151.6,1993.95C17153.5,1996.15 17155.9,1997.25 17159,1997.25C17161.6,1997.25 17163.7,1996.33 17165.3,1994.48C17166.8,1992.63 17167.9,1990.11 17168.4,1986.92L17174.7,1986.92C17174.5,1989.36 17174,1991.61 17173.2,1993.65C17172.4,1995.7 17171.3,1997.44 17169.9,1998.88C17168.5,2000.31 17166.7,2001.42 17164.7,2002.21C17162.6,2003 17160.2,2003.39 17157.4,2003.39Z" style="fill:rgb(38,38,38);fill-rule:nonzero;"/>
                <path d="M17183.7,2002.45L17183.7,1996.78L17188.5,1996.78L17188.5,1969.27L17183.7,1969.27L17183.7,1963.61L17221.8,1963.61L17221.8,1977.95L17215.7,1977.95C17215.4,1976.06 17215.1,1974.54 17214.7,1973.38C17214.4,1972.22 17214,1971.32 17213.5,1970.69C17212.9,1970.06 17212.3,1969.64 17211.4,1969.42C17210.6,1969.21 17209.6,1969.1 17208.3,1969.1L17199.6,1969.1L17199.6,1980.13L17202.5,1980.13C17203.9,1980.13 17204.8,1979.83 17205.2,1979.22C17205.5,1978.61 17205.9,1977.18 17206.2,1974.94L17211.4,1974.94L17211.4,1990.82L17206.2,1990.82C17205.9,1988.58 17205.6,1987.15 17205.2,1986.54C17204.7,1985.93 17203.8,1985.62 17202.5,1985.62L17199.6,1985.62L17199.6,1996.96L17208.1,1996.96C17209.7,1996.96 17210.9,1996.8 17211.9,1996.48C17212.8,1996.17 17213.5,1995.61 17214.1,1994.8C17214.7,1994 17215.1,1992.91 17215.4,1991.56C17215.7,1990.2 17215.9,1988.5 17216.2,1986.45L17222.3,1986.45L17222.3,2002.45L17183.7,2002.45Z" style="fill:rgb(38,38,38);fill-rule:nonzero;"/>
                <path d="M16783.8,2061.47L16783.8,2055.8L16788.7,2055.8L16788.7,2028.3L16783.8,2028.3L16783.8,2022.63L16804.8,2022.63L16804.8,2028.3L16799.9,2028.3L16799.9,2055.8L16804.8,2055.8L16804.8,2061.47L16783.8,2061.47Z" style="fill:rgb(38,38,38);fill-rule:nonzero;"/>
                <path d="M16841.9,2061.82L16825.3,2032.49L16824.7,2032.49L16824.7,2055.8L16829.7,2055.8L16829.7,2061.47L16814.4,2061.47L16814.4,2055.8L16819.1,2055.8L16819.1,2028.3L16814.4,2028.3L16814.4,2022.63L16832.5,2022.63L16847.6,2049.31L16848.2,2049.31L16848.2,2028.3L16843.2,2028.3L16843.2,2022.63L16858.5,2022.63L16858.5,2028.3L16853.8,2028.3L16853.8,2061.82L16841.9,2061.82Z" style="fill:rgb(38,38,38);fill-rule:nonzero;"/>
                <path d="M16886.1,2062.41C16883.6,2062.41 16881.4,2061.93 16879.3,2060.97C16877.2,2060.01 16875.7,2058.85 16874.6,2057.52L16873.3,2062.3L16867.5,2062.3L16867.5,2047.78L16873.4,2047.78C16874.3,2050.77 16875.7,2053.05 16877.6,2054.62C16879.4,2056.2 16882,2056.99 16885.3,2056.99C16887.3,2056.99 16888.8,2056.55 16889.9,2055.69C16891,2054.82 16891.5,2053.72 16891.5,2052.38C16891.5,2050.85 16890.7,2049.77 16889,2049.16C16887.3,2048.55 16884.9,2047.89 16881.9,2047.19C16880.3,2046.83 16878.6,2046.39 16876.9,2045.86C16875.2,2045.33 16873.7,2044.6 16872.4,2043.67C16871,2042.75 16869.9,2041.55 16869.1,2040.07C16868.3,2038.6 16867.8,2036.74 16867.8,2034.5C16867.8,2032.53 16868.2,2030.76 16869,2029.18C16869.7,2027.61 16870.8,2026.27 16872.1,2025.17C16873.4,2024.07 16874.9,2023.21 16876.6,2022.6C16878.4,2021.99 16880.2,2021.69 16882.1,2021.69C16884.4,2021.69 16886.4,2022.08 16888.1,2022.87C16889.8,2023.65 16891.2,2024.72 16892.1,2026.06L16893.4,2021.81L16899.1,2021.81L16899.1,2035.74L16893.2,2035.74C16892.2,2032.78 16891,2030.61 16889.5,2029.21C16887.9,2027.82 16885.9,2027.12 16883.3,2027.12C16881.3,2027.12 16879.8,2027.59 16878.8,2028.54C16877.8,2029.48 16877.3,2030.52 16877.3,2031.66C16877.3,2033.32 16878.2,2034.47 16880,2035.12C16881.8,2035.77 16884.2,2036.44 16887.2,2037.15C16888.8,2037.55 16890.4,2038.01 16892.1,2038.54C16893.7,2039.07 16895.2,2039.79 16896.5,2040.69C16897.8,2041.6 16898.9,2042.76 16899.7,2044.18C16900.5,2045.59 16900.9,2047.38 16900.9,2049.55C16900.9,2053.37 16899.6,2056.46 16896.8,2058.84C16894.1,2061.22 16890.5,2062.41 16886.1,2062.41Z" style="fill:rgb(38,38,38);fill-rule:nonzero;"/>
                <path d="M16917.2,2061.47L16917.2,2055.8L16923,2055.8L16923,2027.53L16922,2027.53C16920.9,2027.53 16919.9,2027.67 16919.2,2027.94C16918.4,2028.22 16917.8,2028.76 16917.3,2029.57C16916.8,2030.37 16916.3,2031.54 16915.9,2033.05C16915.5,2034.57 16915,2036.56 16914.6,2039.04L16909.1,2039.04L16909.1,2022.63L16948.1,2022.63L16948.1,2039.04L16942.6,2039.04C16942.1,2036.56 16941.7,2034.57 16941.3,2033.05C16940.9,2031.54 16940.4,2030.37 16939.9,2029.57C16939.4,2028.76 16938.8,2028.22 16938,2027.94C16937.3,2027.67 16936.3,2027.53 16935.2,2027.53L16934.2,2027.53L16934.2,2055.8L16940,2055.8L16940,2061.47L16917.2,2061.47Z" style="fill:rgb(38,38,38);fill-rule:nonzero;"/>
                <path d="M16957.5,2061.47L16957.5,2055.8L16962.5,2055.8L16962.5,2028.3L16957.5,2028.3L16957.5,2022.63L16978.6,2022.63L16978.6,2028.3L16973.7,2028.3L16973.7,2055.8L16978.6,2055.8L16978.6,2061.47L16957.5,2061.47Z" style="fill:rgb(38,38,38);fill-rule:nonzero;"/>
                <path d="M16996.2,2061.47L16996.2,2055.8L17002,2055.8L17002,2027.53L17001,2027.53C16999.8,2027.53 16998.9,2027.67 16998.2,2027.94C16997.4,2028.22 16996.8,2028.76 16996.3,2029.57C16995.8,2030.37 16995.3,2031.54 16994.9,2033.05C16994.5,2034.57 16994,2036.56 16993.6,2039.04L16988.1,2039.04L16988.1,2022.63L17027.1,2022.63L17027.1,2039.04L17021.6,2039.04C17021.1,2036.56 17020.7,2034.57 17020.3,2033.05C17019.8,2031.54 17019.4,2030.37 17018.9,2029.57C17018.4,2028.76 17017.7,2028.22 17017,2027.94C17016.2,2027.67 17015.3,2027.53 17014.2,2027.53L17013.1,2027.53L17013.1,2055.8L17018.9,2055.8L17018.9,2061.47L16996.2,2061.47Z" style="fill:rgb(38,38,38);fill-rule:nonzero;"/>
                <path d="M17057.7,2062.41C17051.7,2062.41 17047.2,2061.1 17044.3,2058.46C17041.5,2055.82 17040,2052.14 17040,2047.42L17040,2028.3L17035.2,2028.3L17035.2,2022.63L17056.4,2022.63L17056.4,2028.3L17051.2,2028.3L17051.2,2046.36C17051.2,2049.9 17051.9,2052.36 17053.3,2053.74C17054.7,2055.12 17056.7,2055.8 17059.4,2055.8C17060.7,2055.8 17061.8,2055.64 17062.8,2055.3C17063.7,2054.97 17064.6,2054.45 17065.3,2053.74C17066.1,2052.95 17066.7,2051.85 17067.1,2050.43C17067.5,2049.02 17067.7,2047.31 17067.7,2045.3L17067.7,2028.3L17062.8,2028.3L17062.8,2022.63L17078.2,2022.63L17078.2,2028.3L17073.6,2028.3L17073.6,2047.01C17073.6,2049.1 17073.3,2051.08 17072.7,2052.97C17072.1,2054.86 17071.2,2056.49 17069.9,2057.87C17068.6,2059.25 17067,2060.35 17064.9,2061.18C17062.9,2062 17060.5,2062.41 17057.7,2062.41Z" style="fill:rgb(38,38,38);fill-rule:nonzero;"/>
                <path d="M17094.2,2061.47L17094.2,2055.8L17100,2055.8L17100,2027.53L17099,2027.53C17097.8,2027.53 17096.9,2027.67 17096.1,2027.94C17095.4,2028.22 17094.8,2028.76 17094.2,2029.57C17093.7,2030.37 17093.3,2031.54 17092.9,2033.05C17092.4,2034.57 17092,2036.56 17091.5,2039.04L17086,2039.04L17086,2022.63L17125.1,2022.63L17125.1,2039.04L17119.6,2039.04C17119.1,2036.56 17118.7,2034.57 17118.2,2033.05C17117.8,2031.54 17117.4,2030.37 17116.9,2029.57C17116.3,2028.76 17115.7,2028.22 17115,2027.94C17114.2,2027.67 17113.3,2027.53 17112.1,2027.53L17111.1,2027.53L17111.1,2055.8L17116.9,2055.8L17116.9,2061.47L17094.2,2061.47Z" style="fill:rgb(38,38,38);fill-rule:nonzero;"/>
                <path d="M17133.8,2061.47L17133.8,2055.8L17138.6,2055.8L17138.6,2028.3L17133.8,2028.3L17133.8,2022.63L17171.9,2022.63L17171.9,2036.98L17165.8,2036.98C17165.5,2035.09 17165.1,2033.56 17164.8,2032.4C17164.5,2031.24 17164.1,2030.35 17163.5,2029.72C17163,2029.09 17162.4,2028.66 17161.5,2028.45C17160.7,2028.23 17159.7,2028.12 17158.4,2028.12L17149.7,2028.12L17149.7,2039.16L17152.6,2039.16C17154,2039.16 17154.9,2038.85 17155.3,2038.24C17155.6,2037.63 17156,2036.21 17156.3,2033.97L17161.5,2033.97L17161.5,2049.84L17156.3,2049.84C17156,2047.6 17155.7,2046.17 17155.3,2045.56C17154.8,2044.95 17153.9,2044.65 17152.6,2044.65L17149.7,2044.65L17149.7,2055.98L17158.2,2055.98C17159.7,2055.98 17161,2055.82 17162,2055.51C17162.9,2055.19 17163.6,2054.63 17164.2,2053.83C17164.7,2053.02 17165.2,2051.94 17165.5,2050.58C17165.8,2049.22 17166,2047.52 17166.3,2045.48L17172.4,2045.48L17172.4,2061.47L17133.8,2061.47Z" style="fill:rgb(38,38,38);fill-rule:nonzero;"/>
            </g>
            <g transform="matrix(0.454369,0,0,0.454369,7506.86,941.387)">
                <g transform="matrix(0.903127,0,0,0.903127,381.317,132.055)">
                    <path d="M3717.9,1191.88L3706.56,1178.43L3738.85,1124.8L3774.83,1106.13L3887.01,1096.21L3887.01,1125.39L3916.29,1134.79L3926.72,1119.57L4024.89,1146.74L4049.94,1194.9L4070.06,1232.45L4068.74,1235.83L4106.41,1277.29L4106.96,1276.12L4154.02,1268.96L4183.34,1286.68L4172.61,1333.5L4153.25,1361.71L4124.4,1374.49L4120.93,1372.12L4086.43,1431.44L4096.36,1454.52L4096.31,1454.8L4105.21,1454.8L4106.48,1454.8L4120.43,1428.32L4172.7,1457.64L4139.04,1548.75L4086.06,1571.99L4070.32,1528.4L4077.94,1507.88L4080.86,1492.36L4062.02,1502.76L4061.19,1502.44L4055.53,1544.77L4037.83,1556.76L4031.54,1571.33L4016.62,1597.13L3975.12,1626.21L3910.27,1630.15L3891.69,1561.84L3869.76,1507.28L3879.97,1495.32L3868.98,1477L3881.32,1438.42L3848.95,1386L3854.03,1365.01L3817.79,1347.64L3800.44,1353.17L3762.78,1356.37L3757.76,1339.94L3729.55,1353.94L3686.22,1303.45L3690.67,1280.43L3675.82,1271.58L3675.82,1238.73L3679.47,1209.39L3717.9,1191.88Z" style="fill:rgb(26,26,26);"/>
                </g>
                <g transform="matrix(0.941772,0,0,0.941772,228.905,-288.207)">
                    <g transform="matrix(0.981685,-4.71518e-17,4.71518e-17,0.981685,-7867.4,32.8916)">
                        <path d="M12071,1917.87L12071,1925.33L12065.4,1944.56L12055.2,1954.53L12036.2,1957.39L12033.1,1940.27L12028.9,1925.33L12044.8,1925.33L12071,1917.87ZM12022.2,1895.93L11978.1,1885.88L12000,1940.27L12014.1,1992.17L12055.2,1989.67L12087.3,1967.15L12099.1,1946.88L12107.1,1928.27L12121.7,1918.35L12127,1879.29L12109.2,1875.22L12075.7,1886.8L12022.2,1895.93Z" style="fill:rgb(244,37,54);"/>
                    </g>
                    <g transform="matrix(0.849412,0,0,0.849412,-6278.83,50.2142)">
                        <path d="M11931.2,1862L11943.2,1808.8L11903.1,1801.75L11905.9,1775.14L11858.9,1780.83L11787.3,1808.8L11820.3,1753.94L11850.9,1738.05L11947.3,1729.53L11947.3,1753.94L12013.4,1775.14L12025.6,1757.36L12110.4,1780.83L12134,1826.24L12156.8,1868.76L12054.4,1903.98L11903.1,1913.9L11799,1965.61L11762,1922.49L11878.2,1862L11931.2,1862ZM11985.4,1815.82L11980.6,1862L12042.9,1862L12080.5,1841.53L12072.1,1815.82L12042.9,1806.52L12033.5,1826.24L11985.4,1815.82Z" style="fill:rgb(255,140,26);"/>
                    </g>
                    <g transform="matrix(0.849412,0,0,0.849412,-6317.45,81.4702)">
                        <path d="M12141.5,1944.79L12181.2,1928.93L12193.2,1939.99L12193.2,1964L12168.1,2023.5L12116.4,2045.7L12071.7,2049.96L12031.1,2042.96L11998.5,1990.2L12004.9,1964L11988.7,1939.99L12009.7,1894.33L12110.4,1886.61L12212.5,1849.79L12246.4,1887.08L12259.1,1916.47L12259.1,1968.46L12225.9,2025.45L12188.7,2020.93L12214.8,1961.77L12214.8,1921.22L12188.7,1905.16L12129.8,1926.44L12053.7,1934.53L12066.1,1961.77L12056.5,1984.67L12071.7,2003.59L12110.4,2003.59L12135.9,1997.4L12143.7,1976.37L12110.4,1984.67L12089.8,1984.67L12092,1961.77L12089.8,1950.89L12141.5,1944.79Z" style="fill:rgb(29,201,72);"/>
                    </g>
                    <g transform="matrix(0.849412,0,0,0.849412,-6317.45,81.4702)">
                        <path d="M12274.8,1959.71L12277,1908.16L12268.2,1893.41L12312.9,1886.61L12324.1,1893.41L12316.8,1925.32L12301.3,1947.98L12274.8,1959.71Z" style="fill:rgb(29,201,72);"/>
                    </g>
                    <g transform="matrix(0.981685,-4.71518e-17,4.71518e-17,0.981685,-7836.21,46.0973)">
                        <path d="M12157.5,1849.1L12171,1849.1L12180.6,1830.85L12198.3,1840.77L12174.4,1905.36L12150.5,1915.84L12145.1,1900.74L12150.5,1886.06L12157.5,1849.1Z" style="fill:rgb(244,37,54);"/>
                    </g>
                    <g transform="matrix(0.849412,0,0,0.849412,-6279.59,56.6569)">
                        <path d="M11987.7,2089.97L11973.8,2133.32L12024.6,2142.59L12084.5,2137.12L12137.8,2117.72L12177.9,2133.32L12183.6,2103.42L12170.1,2072.08L12137.8,2067.4L12076.9,2092.58L12027.8,2097.21L11987.7,2089.97Z" style="fill:rgb(244,37,54);"/>
                    </g>
                    <g transform="matrix(0.849412,0,0,0.849412,-6282.66,58.3673)">
                        <path d="M11760.4,1892.23L11760.4,1856.6L11762.8,1837.97L11857.6,1794.73L11887.4,1789.74L11882.8,1809.27L11918.1,1816.37L11915,1832.05L11877.6,1828.8L11760.4,1892.23Z" style="fill:rgb(255,140,26);"/>
                    </g>
                    <g transform="matrix(4.71518e-17,0.849412,-0.849412,4.71518e-17,5629.62,-8450.05)">
                        <path d="M11969.7,2125.2L11984.7,2093.97L11938.8,2072.95L11938.8,2114.67L11981.3,2191.04L11978,2151.16L11969.7,2125.2Z" style="fill:rgb(29,201,72);"/>
                    </g>
                </g>
            </g>
            <g transform="matrix(0.860895,0,0,1.15844,-5636.71,-390.502)">
                <path d="M17067,2113.35L17069.1,2110.29L17072.6,2111.64L17083.1,2096.79L17079.6,2095.44L17081.8,2092.38L17108.9,2102.92L17103.3,2110.82L17098.9,2109.11C17099.3,2107.91 17099.7,2106.93 17099.8,2106.15C17100,2105.38 17100,2104.73 17099.8,2104.23C17099.6,2103.72 17099.2,2103.29 17098.7,2102.93C17098.1,2102.58 17097.3,2102.22 17096.4,2101.86L17091.2,2099.85L17086.8,2106.19L17088.3,2106.79C17089.3,2107.19 17090.1,2107.28 17090.6,2107.05C17091.1,2106.83 17091.9,2106.16 17093,2105.03L17096.8,2106.52L17090.7,2115.19L17086.9,2113.7C17087.6,2112.37 17087.9,2111.48 17087.8,2111.02C17087.8,2110.56 17087.2,2110.14 17086.2,2109.75L17084.7,2109.15L17080.7,2114.79L17085.2,2116.53L17083,2119.59L17067,2113.35Z" style="fill:rgb(38,38,38);fill-rule:nonzero;"/>
                <path d="M17116.9,2132.05C17114.7,2131.34 17112.8,2130.42 17111.2,2129.29C17109.6,2128.16 17108.4,2126.9 17107.6,2125.51C17106.8,2124.11 17106.4,2122.58 17106.5,2120.93C17106.5,2119.28 17107.1,2117.58 17108.1,2115.84C17109.1,2114.1 17110.4,2112.64 17112,2111.46C17113.5,2110.28 17115.3,2109.41 17117.2,2108.85C17119.2,2108.29 17121.2,2108.03 17123.4,2108.09C17125.6,2108.15 17127.8,2108.52 17130,2109.22C17132.3,2109.93 17134.2,2110.85 17135.8,2111.98C17137.4,2113.1 17138.5,2114.37 17139.3,2115.78C17140.1,2117.19 17140.5,2118.71 17140.4,2120.35C17140.4,2121.99 17139.9,2123.68 17138.9,2125.43C17137.9,2127.17 17136.6,2128.63 17135,2129.81C17133.4,2130.99 17131.6,2131.86 17129.7,2132.42C17127.8,2132.98 17125.7,2133.23 17123.5,2133.18C17121.3,2133.12 17119.1,2132.75 17116.9,2132.05ZM17118.8,2129.16C17120.9,2129.83 17122.8,2129.67 17124.6,2128.68C17126.3,2127.7 17128.1,2125.68 17129.8,2122.63C17131.5,2119.61 17132.2,2117.27 17131.9,2115.6C17131.5,2113.94 17130.3,2112.77 17128.1,2112.11C17126,2111.44 17124.1,2111.6 17122.4,2112.6C17120.6,2113.6 17118.9,2115.61 17117.2,2118.63C17115.4,2121.68 17114.7,2124.03 17115.1,2125.68C17115.5,2127.33 17116.7,2128.49 17118.8,2129.16Z" style="fill:rgb(38,38,38);fill-rule:nonzero;"/>
                <path d="M17167.9,2146.01C17165.1,2145.31 17163.3,2144.28 17162.7,2142.92C17162.1,2141.55 17162.3,2139.88 17163.1,2137.9L17163.4,2137.39C17163.9,2136.11 17164.1,2135.15 17163.8,2134.5C17163.5,2133.85 17162.6,2133.34 17161.1,2132.96L17158,2132.18L17155.1,2138.63L17159.1,2139.62L17157.6,2142.89L17141.2,2138.83L17142.7,2135.56L17146.4,2136.48L17153.5,2120.58L17149.8,2119.66L17151.3,2116.38L17168.7,2120.69C17170.9,2121.25 17172.8,2121.89 17174.2,2122.6C17175.6,2123.3 17176.7,2124.04 17177.5,2124.81C17178.2,2125.57 17178.7,2126.35 17178.8,2127.15C17178.9,2127.94 17178.9,2128.69 17178.5,2129.39C17177.9,2130.82 17176.6,2131.86 17174.7,2132.5C17172.8,2133.14 17169.9,2133.13 17166,2132.46L17165.9,2132.67C17168.9,2133.55 17170.9,2134.6 17171.7,2135.83C17172.5,2137.06 17172.7,2138.37 17172.1,2139.78L17171.8,2140.64C17171.4,2141.42 17171.3,2141.97 17171.5,2142.27C17171.6,2142.58 17171.9,2142.79 17172.3,2142.91C17172.6,2142.98 17173,2142.89 17173.4,2142.65C17173.9,2142.4 17174.4,2141.87 17175.1,2141.06L17177.8,2142.42C17176.8,2143.84 17175.4,2144.95 17173.8,2145.73C17172.2,2146.51 17170.3,2146.6 17167.9,2146.01ZM17159.3,2129.07L17163,2129.97C17164.5,2130.34 17165.7,2130.39 17166.7,2130.13C17167.7,2129.86 17168.5,2129.1 17169.1,2127.85C17169.6,2126.73 17169.6,2125.84 17169.3,2125.16C17168.9,2124.49 17167.8,2123.92 17165.9,2123.45L17162.3,2122.56L17159.3,2129.07Z" style="fill:rgb(38,38,38);fill-rule:nonzero;"/>
                <path d="M17195.7,2151.48L17196.7,2148.11L17200.5,2148.76L17205.6,2132.43L17201.7,2131.78L17202.8,2128.41L17217,2130.84C17220.3,2131.39 17223,2132.14 17225.2,2133.1C17227.4,2134.06 17229.2,2135.17 17230.4,2136.43C17231.7,2137.68 17232.5,2139.09 17232.8,2140.64C17233.1,2142.2 17233,2143.84 17232.4,2145.57C17231.9,2147.3 17231,2148.82 17229.8,2150.12C17228.6,2151.43 17227.1,2152.45 17225.2,2153.2C17223.4,2153.94 17221.2,2154.38 17218.6,2154.53C17216.1,2154.68 17213.3,2154.48 17210.1,2153.94L17195.7,2151.48ZM17209.4,2150.39L17211.7,2150.77C17214.8,2151.32 17217.3,2151.09 17218.9,2150.09C17220.6,2149.09 17221.9,2147.05 17222.8,2143.97C17223.7,2140.95 17223.7,2138.7 17222.8,2137.22C17221.8,2135.75 17219.7,2134.73 17216.5,2134.19L17214.5,2133.84L17209.4,2150.39Z" style="fill:rgb(38,38,38);fill-rule:nonzero;"/>
                <path d="M17237.9,2158.39L17238.6,2154.98L17242.5,2155.44L17246,2138.88L17242.1,2138.43L17242.8,2135.02L17273.7,2138.64L17271.8,2147.27L17266.9,2146.69C17266.9,2145.53 17266.8,2144.58 17266.7,2143.85C17266.6,2143.12 17266.4,2142.54 17266,2142.11C17265.7,2141.68 17265.2,2141.36 17264.6,2141.16C17263.9,2140.95 17263.1,2140.78 17262.1,2140.66L17255,2139.84L17253.6,2146.48L17255.9,2146.75C17257.1,2146.89 17257.8,2146.79 17258.2,2146.45C17258.6,2146.12 17259.1,2145.3 17259.6,2143.98L17263.9,2144.48L17261.8,2154.03L17257.6,2153.53C17257.6,2152.16 17257.5,2151.27 17257.3,2150.86C17257,2150.45 17256.3,2150.18 17255.2,2150.05L17252.9,2149.78L17251.5,2156.61L17258.3,2157.41C17259.6,2157.56 17260.6,2157.58 17261.4,2157.48C17262.2,2157.38 17262.9,2157.12 17263.5,2156.68C17264,2156.25 17264.5,2155.64 17264.9,2154.85C17265.3,2154.06 17265.8,2153.07 17266.3,2151.86L17271.2,2152.44L17269.1,2162.07L17237.9,2158.39Z" style="fill:rgb(38,38,38);fill-rule:nonzero;"/>
                <path d="M17291.3,2163.95L17283.4,2142.98L17279.8,2142.75L17280.3,2139.31L17297.7,2140.47L17297.3,2143.91L17293.3,2143.64L17298.4,2158.61L17298.7,2158.63L17307.2,2144.58L17303.2,2144.31L17303.6,2140.87L17316.3,2141.72L17315.9,2145.16L17312.4,2144.92L17299.7,2164.51L17291.3,2163.95Z" style="fill:rgb(38,38,38);fill-rule:nonzero;"/>
                <path d="M17321.1,2165.56L17321.2,2162.11L17325.1,2162.18L17325.7,2145.43L17321.8,2145.35L17321.9,2141.9L17353.1,2142.49L17352.8,2151.23L17347.8,2151.14C17347.6,2149.98 17347.3,2149.05 17347.1,2148.33C17346.8,2147.62 17346.5,2147.07 17346.1,2146.68C17345.7,2146.29 17345.2,2146.02 17344.5,2145.87C17343.8,2145.73 17343,2145.65 17341.9,2145.63L17334.8,2145.49L17334.6,2152.22L17336.9,2152.26C17338.1,2152.28 17338.8,2152.11 17339.1,2151.74C17339.5,2151.38 17339.8,2150.51 17340.1,2149.15L17344.4,2149.24L17344,2158.91L17339.7,2158.83C17339.6,2157.45 17339.3,2156.58 17339,2156.2C17338.7,2155.82 17337.9,2155.62 17336.8,2155.6L17334.5,2155.56L17334.2,2162.46L17341.2,2162.6C17342.5,2162.62 17343.5,2162.54 17344.3,2162.37C17345,2162.19 17345.7,2161.86 17346.1,2161.38C17346.6,2160.89 17347,2160.24 17347.2,2159.42C17347.5,2158.6 17347.8,2157.56 17348.1,2156.32L17353,2156.42L17352.7,2166.16L17321.1,2165.56Z" style="fill:rgb(38,38,38);fill-rule:nonzero;"/>
                <path d="M17362.2,2166.1L17362,2162.65L17365.9,2162.55L17365.1,2145.8L17361.2,2145.9L17361.1,2142.45L17378.7,2141.99L17378.8,2145.44L17374.3,2145.56L17375.1,2162.42L17380,2162.29C17380.9,2162.27 17381.7,2162.17 17382.3,2162.01C17383,2161.85 17383.5,2161.53 17383.9,2161.05C17384.3,2160.58 17384.7,2159.88 17385.1,2158.95C17385.5,2158.03 17385.8,2156.81 17386.3,2155.29L17390.7,2155.18L17391.1,2165.35L17362.2,2166.1Z" style="fill:rgb(38,38,38);fill-rule:nonzero;"/>
                <path d="M17416.8,2164.34C17414.3,2164.51 17412.1,2164.39 17409.9,2163.96C17407.8,2163.54 17406,2162.85 17404.4,2161.91C17402.8,2160.96 17401.5,2159.76 17400.4,2158.29C17399.4,2156.82 17398.8,2155.14 17398.5,2153.26C17398.3,2151.37 17398.5,2149.63 17399.1,2148.03C17399.8,2146.43 17400.7,2145.04 17402.1,2143.86C17403.4,2142.68 17405.1,2141.72 17407,2140.99C17409,2140.26 17411.2,2139.81 17413.5,2139.64C17416,2139.46 17418.3,2139.58 17420.4,2140.01C17422.5,2140.43 17424.3,2141.12 17425.9,2142.08C17427.5,2143.04 17428.9,2144.24 17429.9,2145.7C17430.9,2147.16 17431.5,2148.83 17431.8,2150.71C17432,2152.6 17431.8,2154.34 17431.2,2155.94C17430.6,2157.54 17429.6,2158.93 17428.2,2160.11C17426.9,2161.29 17425.2,2162.25 17423.3,2162.98C17421.3,2163.71 17419.1,2164.16 17416.8,2164.34ZM17416.5,2161.14C17418.8,2160.97 17420.4,2160.15 17421.3,2158.66C17422.2,2157.17 17422.4,2154.78 17422,2151.49C17421.6,2148.22 17420.7,2145.92 17419.3,2144.59C17417.9,2143.25 17416,2142.67 17413.8,2142.84C17411.5,2143 17409.9,2143.83 17409,2145.33C17408.1,2146.83 17407.9,2149.21 17408.3,2152.48C17408.7,2155.77 17409.7,2158.08 17411,2159.4C17412.4,2160.72 17414.3,2161.3 17416.5,2161.14Z" style="fill:rgb(38,38,38);fill-rule:nonzero;"/>
                <path d="M17442.4,2161.65L17441.7,2158.24L17445.5,2157.77L17441.9,2141.23L17438,2141.7L17437.3,2138.3L17453.7,2136.29C17458.6,2135.69 17462.3,2135.92 17464.8,2136.98C17467.3,2138.04 17468.8,2139.67 17469.3,2141.87C17469.7,2144.02 17469,2145.91 17467.1,2147.53C17465.2,2149.15 17461.8,2150.25 17456.9,2150.85L17453.4,2151.28L17454.6,2156.67L17458.7,2156.16L17459.5,2159.57L17442.4,2161.65ZM17452.7,2148.08L17455.5,2147.74C17457.4,2147.5 17458.7,2147.02 17459.3,2146.3C17460,2145.58 17460.1,2144.49 17459.8,2143.02C17459.5,2141.55 17458.9,2140.57 17458,2140.05C17457.1,2139.54 17455.7,2139.4 17453.7,2139.65L17450.9,2139.99L17452.7,2148.08Z" style="fill:rgb(38,38,38);fill-rule:nonzero;"/>
                <path d="M17481.2,2156.89L17480.1,2153.53L17483.8,2152.86L17478.5,2136.58L17474.8,2137.25L17473.7,2133.89L17489.5,2131.04L17499.9,2142.89L17500,2142.86L17501.3,2128.9L17516.8,2126.09L17517.9,2129.45L17514.1,2130.14L17519.4,2146.43L17523.2,2145.74L17524.3,2149.09L17507.9,2152.07L17506.8,2148.71L17510.6,2148.03L17505.5,2132.65L17505.1,2132.73L17502.5,2153.08L17499,2153.7L17483.7,2136.59L17483.3,2136.67L17488.3,2152.05L17492,2151.39L17493.1,2154.74L17481.2,2156.89Z" style="fill:rgb(38,38,38);fill-rule:nonzero;"/>
                <path d="M17532.7,2147.12L17531.3,2143.85L17535,2142.93L17527.9,2127.02L17524.2,2127.93L17522.7,2124.65L17552.4,2117.37L17556.1,2125.67L17551.3,2126.83C17550.6,2125.8 17550,2124.98 17549.4,2124.37C17548.8,2123.76 17548.3,2123.33 17547.7,2123.06C17547.2,2122.8 17546.5,2122.68 17545.8,2122.71C17545.1,2122.74 17544.3,2122.88 17543.3,2123.12L17536.5,2124.78L17539.4,2131.17L17541.6,2130.62C17542.7,2130.35 17543.3,2130.01 17543.5,2129.58C17543.6,2129.16 17543.5,2128.27 17543.2,2126.91L17547.2,2125.9L17551.3,2135.09L17547.2,2136.1C17546.4,2134.85 17545.8,2134.09 17545.3,2133.82C17544.9,2133.54 17544.1,2133.54 17543,2133.8L17540.8,2134.34L17543.7,2140.9L17550.3,2139.29C17551.5,2138.99 17552.5,2138.65 17553.1,2138.29C17553.8,2137.93 17554.2,2137.46 17554.4,2136.89C17554.6,2136.32 17554.7,2135.61 17554.6,2134.77C17554.5,2133.93 17554.2,2132.89 17553.9,2131.65L17558.7,2130.49L17562.8,2139.74L17532.7,2147.12Z" style="fill:rgb(38,38,38);fill-rule:nonzero;"/>
                <path d="M17592.6,2131.04L17570.7,2118.5L17570.2,2118.63L17577.7,2131.72L17581.4,2130.55L17583.2,2133.73L17571.7,2137.35L17569.9,2134.17L17573.4,2133.06L17564.6,2117.62L17561.1,2118.72L17559.3,2115.54L17573,2111.25L17592.9,2122.66L17593.3,2122.54L17586.6,2110.74L17582.9,2111.91L17581.1,2108.73L17592.6,2105.11L17594.4,2108.29L17590.9,2109.4L17601.6,2128.22L17592.6,2131.04Z" style="fill:rgb(38,38,38);fill-rule:nonzero;"/>
                <path d="M17618.2,2122.04L17616,2118.98L17620.2,2117.35L17609.5,2102.07L17608.8,2102.36C17607.9,2102.68 17607.3,2103.02 17606.9,2103.38C17606.4,2103.74 17606.2,2104.21 17606.1,2104.79C17606,2105.37 17606.1,2106.12 17606.4,2107.06C17606.7,2107.99 17607.1,2109.2 17607.7,2110.67L17603.7,2112.22L17597.5,2103.35L17625.9,2092.36L17632.1,2101.22L17628.1,2102.77C17626.8,2101.56 17625.7,2100.61 17624.9,2099.91C17624,2099.2 17623.2,2098.71 17622.5,2098.41C17621.9,2098.12 17621.2,2098.01 17620.5,2098.07C17619.9,2098.13 17619.2,2098.32 17618.3,2098.65L17617.6,2098.93L17628.3,2114.2L17632.5,2112.57L17634.7,2115.63L17618.2,2122.04Z" style="fill:rgb(38,38,38);fill-rule:nonzero;"/>
            </g>
            <g transform="matrix(0.79664,0,0,1,4034.96,-558.232)">
                <rect x="6557.74" y="2585.95" width="110.323" height="8.333" style="fill:rgb(38,38,38);"/>
            </g>
        </g>
    </g>
</svg>
